<svg width="19" height="16" viewBox="0 0 19 16" fill="none" xmlns="http://www.w3.org/2000/svg">
<path d="M17.8335 8.21424C17.8335 7.81873 17.5396 7.49186 17.1583 7.44013L17.0522 7.43299L3.31891 7.43362L8.28036 2.49244C8.58611 2.188 8.58718 1.69334 8.28274 1.38759C8.00597 1.10963 7.572 1.08348 7.26567 1.30976L7.17789 1.38521L0.875803 7.66021C0.835499 7.70034 0.800493 7.74377 0.770782 7.78964C0.762392 7.80344 0.753849 7.81757 0.74575 7.83197C0.738302 7.84432 0.731571 7.85715 0.725222 7.87011C0.716402 7.88898 0.707785 7.90846 0.699961 7.92835C0.693604 7.94368 0.688295 7.9586 0.683455 7.97363C0.677698 7.99227 0.672106 8.01213 0.667295 8.0323C0.663719 8.04637 0.660887 8.05993 0.658417 8.07353C0.654942 8.09377 0.651985 8.11472 0.649876 8.13591C0.648052 8.15208 0.646957 8.16809 0.646351 8.18412C0.646194 8.19384 0.645996 8.20402 0.645996 8.21424L0.646389 8.24451C0.646988 8.25984 0.648035 8.27516 0.64953 8.29044L0.645996 8.21424C0.645996 8.26354 0.650564 8.31178 0.659296 8.35855C0.661322 8.36972 0.663734 8.38118 0.666407 8.3926C0.671957 8.41612 0.67837 8.43877 0.685755 8.46097C0.689379 8.472 0.693602 8.48379 0.698114 8.49549C0.707245 8.51899 0.717167 8.5414 0.728085 8.56323C0.733156 8.57349 0.738836 8.58424 0.744783 8.59488C0.754547 8.61223 0.764605 8.62872 0.77524 8.64479C0.782743 8.65617 0.791052 8.66801 0.799728 8.67966L0.80649 8.68867C0.827538 8.71616 0.850372 8.74222 0.874819 8.76667L0.875757 8.7674L7.17784 15.0434C7.48357 15.3479 7.97823 15.3469 8.28269 15.0412C8.55948 14.7632 8.58379 14.3291 8.35623 14.0238L8.2804 13.9363L3.321 8.99612L17.0522 8.99549C17.4837 8.99549 17.8335 8.64572 17.8335 8.21424Z" fill="#00B0F0" stroke="#00B0F0" stroke-width="0.4"/>
</svg>
