<svg width="23" height="19" viewBox="0 0 23 19" fill="none" xmlns="http://www.w3.org/2000/svg">
    <path d="M0.212891 9.13807C0.212891 8.63709 0.588443 8.22305 1.0757 8.15752L1.21115 8.14849L18.7593 8.14928L12.4197 1.89046C12.029 1.50483 12.0276 0.878267 12.4166 0.490978C12.7703 0.138899 13.3248 0.105776 13.7162 0.392387L13.8284 0.487965L21.8811 8.4363C21.9326 8.48713 21.9773 8.54214 22.0152 8.60024C22.026 8.61773 22.0369 8.63562 22.0472 8.65386C22.0567 8.66951 22.0653 8.68575 22.0735 8.70217C22.0847 8.72607 22.0957 8.75075 22.1057 8.77594C22.1139 8.79536 22.1206 8.81425 22.1268 8.83329C22.1342 8.8569 22.1413 8.88206 22.1475 8.90761C22.1521 8.92544 22.1557 8.9426 22.1588 8.95984C22.1633 8.98547 22.167 9.012 22.1697 9.03885C22.1721 9.05933 22.1735 9.07961 22.1742 9.09992C22.1744 9.11223 22.1747 9.12512 22.1747 9.13807L22.1742 9.17641C22.1734 9.19583 22.1721 9.21523 22.1702 9.23459L22.1747 9.13807C22.1747 9.20052 22.1689 9.26162 22.1577 9.32086C22.1551 9.335 22.152 9.34953 22.1486 9.36399C22.1415 9.39378 22.1333 9.42247 22.1239 9.45059C22.1193 9.46457 22.1139 9.4795 22.1081 9.49431C22.0964 9.52409 22.0838 9.55248 22.0698 9.58012C22.0633 9.59313 22.0561 9.60674 22.0485 9.62021C22.036 9.64219 22.0231 9.66308 22.0096 9.68343C22 9.69784 21.9893 9.71284 21.9783 9.7276L21.9696 9.73901C21.9427 9.77384 21.9135 9.80685 21.8823 9.83781L21.8811 9.83873L13.8285 17.7884C13.4378 18.174 12.8057 18.1727 12.4167 17.7855C12.063 17.4334 12.032 16.8836 12.3227 16.4968L12.4196 16.386L18.7566 10.1284L1.21115 10.1277C0.659829 10.1277 0.212891 9.6846 0.212891 9.13807Z"
          fill="#02225C"/>
</svg>
