<svg width="18" height="15" viewBox="0 0 18 15" fill="none" xmlns="http://www.w3.org/2000/svg">
<g clip-path="url(#clip0_721_14829)">
<path d="M0.166504 7.21424C0.166504 6.81873 0.460414 6.49186 0.841743 6.44013L0.947754 6.43299L14.6811 6.43362L9.71964 1.49244C9.41389 1.188 9.41282 0.693344 9.71726 0.38759C9.99403 0.109633 10.428 0.0834837 10.7343 0.309756L10.8221 0.385211L17.1242 6.66021C17.1645 6.70034 17.1995 6.74377 17.2292 6.78964C17.2376 6.80344 17.2462 6.81757 17.2542 6.83197C17.2617 6.84432 17.2684 6.85715 17.2748 6.87011C17.2836 6.88898 17.2922 6.90846 17.3 6.92835C17.3064 6.94368 17.3117 6.9586 17.3165 6.97363C17.3223 6.99227 17.3279 7.01213 17.3327 7.0323C17.3363 7.04637 17.3391 7.05993 17.3416 7.07353C17.3451 7.09377 17.348 7.11472 17.3501 7.13591C17.3519 7.15208 17.353 7.16809 17.3536 7.18412C17.3538 7.19384 17.354 7.20402 17.354 7.21424L17.3536 7.24451C17.353 7.25984 17.352 7.27516 17.3505 7.29044L17.354 7.21424C17.354 7.26354 17.3494 7.31178 17.3407 7.35855C17.3387 7.36972 17.3363 7.38118 17.3336 7.3926C17.328 7.41612 17.3216 7.43877 17.3142 7.46097C17.3106 7.472 17.3064 7.48379 17.3019 7.49549C17.2928 7.51899 17.2828 7.5414 17.2719 7.56323C17.2668 7.57349 17.2612 7.58424 17.2552 7.59488C17.2455 7.61223 17.2354 7.62872 17.2248 7.64479C17.2173 7.65617 17.2089 7.66801 17.2003 7.67966L17.1935 7.68867C17.1725 7.71616 17.1496 7.74222 17.1252 7.76667L17.1242 7.7674L10.8222 14.0434C10.5164 14.3479 10.0218 14.3469 9.71731 14.0412C9.44052 13.7632 9.41621 13.3291 9.64377 13.0238L9.7196 12.9363L14.679 7.99612L0.947754 7.99549C0.516281 7.99549 0.166504 7.64572 0.166504 7.21424Z" fill="#00B0F0" stroke="#00B0F0" stroke-width="0.4"/>
</g>
<defs>
<clipPath id="clip0_721_14829">
<rect width="18" height="15" fill="white"/>
</clipPath>
</defs>
</svg>
