<svg width="36" height="30" viewBox="0 0 36 30" fill="none" xmlns="http://www.w3.org/2000/svg">
	<path fill-rule="evenodd" clip-rule="evenodd"
	      class="elemFillColor"
	      d="M23.6006 8.56843C23.7394 8.56843 23.8751 8.52726 23.9906 8.45012C24.106 8.37299 24.196 8.26335 24.2491 8.13507C24.3023 8.0068 24.3162 7.86565 24.2891 7.72948C24.262 7.5933 24.1951 7.46822 24.097 7.37004C23.9988 7.27187 23.8737 7.20501 23.7375 7.17792C23.6014 7.15083 23.4602 7.16474 23.3319 7.21787C23.2037 7.271 23.094 7.36098 23.0169 7.47642C22.9398 7.59186 22.8986 7.72759 22.8986 7.86643C22.8987 8.05258 22.9727 8.23107 23.1043 8.36269C23.2359 8.49432 23.4144 8.56832 23.6006 8.56843V8.56843ZM32.4484 0.142288H3.51772C2.58653 0.142288 1.69348 0.512204 1.03502 1.17066C0.376568 1.82911 0.00665283 2.72217 0.00665283 3.65336C0.00665283 4.58455 0.376568 5.47761 1.03502 6.13606C1.69348 6.79452 2.58653 7.16443 3.51772 7.16443H7.44987V24.1573H3.93944C3.84714 24.1572 3.75573 24.1754 3.67043 24.2106C3.58514 24.2459 3.50762 24.2976 3.44232 24.3628C3.37701 24.4281 3.32519 24.5055 3.28982 24.5908C3.25444 24.676 3.23621 24.7674 3.23615 24.8597V26.2641C3.23706 27.1952 3.60736 28.0878 4.26576 28.746C4.92417 29.4042 5.81686 29.7743 6.74787 29.775H25.005C25.9358 29.774 26.8282 29.4037 27.4863 28.7455C28.1444 28.0873 28.5145 27.1949 28.5154 26.2641V7.164H32.448C32.9091 7.16403 33.3656 7.07325 33.7916 6.89684C34.2175 6.72043 34.6046 6.46184 34.9306 6.13585C35.2567 5.80985 35.5153 5.42284 35.6917 4.99689C35.8682 4.57094 35.9591 4.11441 35.9591 3.65336C35.9591 3.19231 35.8683 2.73576 35.6919 2.3098C35.5155 1.88383 35.2569 1.49678 34.9309 1.17075C34.6049 0.844713 34.2179 0.586081 33.792 0.409618C33.366 0.233155 32.9095 0.142316 32.4484 0.142288V0.142288ZM6.74787 28.3714C6.18942 28.3707 5.65403 28.1486 5.25915 27.7537C4.86426 27.3588 4.64212 26.8235 4.64144 26.265V25.5617H21.4942V26.2641C21.4933 27.0244 21.7403 27.7642 22.1979 28.3714H6.74787ZM27.1119 26.265C27.1119 26.8237 26.8899 27.3594 26.4949 27.7545C26.0999 28.1495 25.5641 28.3714 25.0054 28.3714C24.4468 28.3714 23.911 28.1495 23.516 27.7545C23.1209 27.3594 22.899 26.8237 22.899 26.265V24.8597C22.899 24.6734 22.825 24.4948 22.6933 24.363C22.5615 24.2313 22.3829 24.1573 22.1966 24.1573H8.8543V4.35729H27.1114V26.2659L27.1119 26.265ZM32.4484 5.76H28.5154V4.35515H31.044C31.2302 4.35515 31.4089 4.28116 31.5405 4.14947C31.6722 4.01778 31.7462 3.83917 31.7462 3.65293C31.7462 3.46669 31.6722 3.28808 31.5405 3.15639C31.4089 3.0247 31.2302 2.95072 31.044 2.95072H4.92215C4.73591 2.95072 4.5573 3.0247 4.42561 3.15639C4.29392 3.28808 4.21994 3.46669 4.21994 3.65293C4.21994 3.83917 4.29392 4.01778 4.42561 4.14947C4.5573 4.28116 4.73591 4.35515 4.92215 4.35515H7.45072V5.76H3.51772C2.96421 5.75211 2.43604 5.52668 2.04741 5.13247C1.65878 4.73826 1.44092 4.20693 1.44092 3.65336C1.44092 3.09979 1.65878 2.56846 2.04741 2.17425C2.43604 1.78003 2.96421 1.55461 3.51772 1.54672H32.4463C32.9998 1.55433 33.5281 1.77948 33.9169 2.17349C34.3058 2.56751 34.5239 3.09873 34.5242 3.6523C34.5245 4.20588 34.3069 4.73732 33.9184 5.13173C33.53 5.52614 33.0019 5.75183 32.4484 5.76ZM12.3647 8.56843H20.7917C20.978 8.56843 21.1566 8.49445 21.2883 8.36276C21.42 8.23107 21.4939 8.05246 21.4939 7.86622C21.4939 7.67998 21.42 7.50137 21.2883 7.36968C21.1566 7.23799 20.978 7.164 20.7917 7.164H12.3647C12.1785 7.164 11.9999 7.23799 11.8682 7.36968C11.7365 7.50137 11.6625 7.67998 11.6625 7.86622C11.6625 8.05246 11.7365 8.23107 11.8682 8.36276C11.9999 8.49445 12.1785 8.56843 12.3647 8.56843ZM12.3647 12.7817H23.6006C23.6943 12.784 23.7874 12.7676 23.8747 12.7333C23.9619 12.6991 24.0414 12.6477 24.1084 12.5823C24.1755 12.5169 24.2288 12.4387 24.2652 12.3523C24.3016 12.266 24.3204 12.1732 24.3204 12.0795C24.3204 11.9858 24.3016 11.893 24.2652 11.8067C24.2288 11.7203 24.1755 11.6421 24.1084 11.5767C24.0414 11.5113 23.9619 11.4599 23.8747 11.4257C23.7874 11.3914 23.6943 11.375 23.6006 11.3773H12.3647C12.1815 11.3818 12.0073 11.4578 11.8793 11.589C11.7513 11.7202 11.6796 11.8962 11.6796 12.0795C11.6796 12.2628 11.7513 12.4388 11.8793 12.57C12.0073 12.7012 12.1815 12.7772 12.3647 12.7817V12.7817Z"
	      fill="#022258"/>
</svg>
