<svg width="22" height="22" viewBox="0 0 22 22" fill="none" xmlns="http://www.w3.org/2000/svg">
<path d="M9.13443 21.9107H0.763426C0.632295 21.9114 0.503217 21.8785 0.388772 21.8151C0.274327 21.7517 0.17842 21.66 0.1104 21.549C0.0423792 21.438 0.00456561 21.3115 0.000644614 21.1817C-0.00327638 21.0519 0.026829 20.9234 0.0880263 20.8085L6.27443 9.20299C6.40417 8.9595 6.59897 8.75598 6.83757 8.61463C7.07616 8.47327 7.34939 8.39951 7.62743 8.4014H18.0554C19.0637 8.41632 20.0251 8.82593 20.7292 9.54065C21.4334 10.2554 21.823 11.2171 21.813 12.2155C21.813 14.9665 18.37 21.9107 9.13443 21.9107Z" fill="#0AE2C7"/>
<path d="M10.1046 13.115H2.86001C2.74696 13.1145 2.63594 13.0853 2.5376 13.0301C2.43925 12.9749 2.35686 12.8956 2.29834 12.7998C2.23982 12.7041 2.20713 12.595 2.20339 12.4832C2.19966 12.3713 2.22501 12.2604 2.27701 12.161L7.62961 2.12375C7.74225 1.91335 7.91081 1.73742 8.11708 1.61496C8.32335 1.49249 8.5595 1.42816 8.80001 1.4289H17.82C18.6926 1.44153 19.5245 1.79582 20.1339 2.41426C20.7433 3.03271 21.0804 3.86495 21.0716 4.7289C21.0716 7.10969 18.0928 13.115 10.1046 13.115Z" fill="white"/>
<path d="M9.0552 11.6861H1.8128C1.69975 11.6856 1.58873 11.6564 1.49038 11.6012C1.39204 11.546 1.30965 11.4667 1.25113 11.371C1.19261 11.2752 1.15992 11.1661 1.15618 11.0543C1.15245 10.9424 1.1778 10.8315 1.2298 10.7321L6.5802 0.692683C6.69313 0.482688 6.86182 0.307197 7.06807 0.185132C7.27432 0.0630673 7.51031 -0.000940249 7.7506 1.04379e-05H16.7706C17.6428 0.0132085 18.4742 0.367752 19.0831 0.986133C19.692 1.60451 20.0288 2.43643 20.02 3.30001C20.02 5.67862 17.0434 11.6861 9.0552 11.6861Z" fill="#45BDF2"/>
<path d="M17.5186 8.4014H7.61862C7.34058 8.39951 7.06735 8.47327 6.82876 8.61463C6.59017 8.75598 6.39537 8.9595 6.26562 9.20299L4.94562 11.6862H9.05522C13.0372 11.6862 15.7762 10.1919 17.5186 8.4014Z" fill="#019BDF"/>
</svg>
