<svg width="26" height="25" viewBox="0 -3 28 28" fill="none" xmlns="http://www.w3.org/2000/svg">
	<path d="M18 14C20.991 14 25 14 25 14V1H1V14H12" stroke="#02225C" class="elemStrokeColor"/>
	<path d="M3 8.61068H5C6 8.11068 6.32841 6.57865 6.5 7.11068C7.12907 9.06119 7.36241 9.7847 7.44896 10.0531C7.48217 10.156 7.53509 10.1645 7.6 10.078L8.91 8.33132C8.96666 8.25578 9.05127 8.21132 9.1457 8.21132C11.5193 8.21132 20.3246 8.21132 23 8.21132"
	      stroke="#02225C" class="elemStrokeColor"/>
	<path d="M21.4412 23.2696L9.69637 11.5248L9.33521 8.33522L12.5248 8.69637L24.2696 20.4412C24.4649 20.6364 24.4649 20.953 24.2696 21.1483L22.1483 23.2696C21.953 23.4649 21.6364 23.4649 21.4412 23.2696Z"
	      stroke="#02225C" class="elemStrokeColor"/>
	<path d="M9.58908 12.1246L13.1246 8.58908" stroke="#02225C" class="elemStrokeColor"/>
	<path d="M19.2057 21.7412L22.7412 18.2057" stroke="#02225C" class="elemStrokeColor"/>
</svg>
