<svg id="Layer" enable-background="new 0 0 64 64" height="512" viewBox="0 0 64 64" width="512" xmlns="http://www.w3.org/2000/svg"><path d="m54 8h-44c-1.104 0-2 .896-2 2v10c0 1.104.896 2 2 2h1v32c0 1.104.896 2 2 2h38c1.104 0 2-.896 2-2v-32h1c1.104 0 2-.896 2-2v-10c0-1.104-.896-2-2-2zm-42 4h40v6h-40zm37 40h-34v-30h34z"/><path d="m27 38h10c2.757 0 5-2.243 5-5v-2c0-2.757-2.243-5-5-5h-10c-2.757 0-5 2.243-5 5v2c0 2.757 2.243 5 5 5zm-1-7c0-.551.449-1 1-1h10c.552 0 1 .449 1 1v2c0 .551-.448 1-1 1h-10c-.551 0-1-.449-1-1z"/></svg>