<?xml version="1.0" encoding="iso-8859-1"?>
<!-- Generator: Adobe Illustrator 19.0.0, SVG Export Plug-In . SVG Version: 6.00 Build 0)  -->
<svg version="1.1" id="Capa_1" xmlns="http://www.w3.org/2000/svg" xmlns:xlink="http://www.w3.org/1999/xlink" x="0px" y="0px"
	 viewBox="0 0 512 512" style="enable-background:new 0 0 512 512;" xml:space="preserve">
<g>
	<g>
		<path d="M438.94,162.066v293.4H73.64v-293.4h-34.79v310.795c0,9.608,7.787,17.395,17.395,17.395h400.091
			c9.608,0,17.395-7.787,17.395-17.395V162.066H438.94z"/>
	</g>
</g>
<g>
	<g>
		<path d="M494.605,21.744H17.395C7.787,21.744,0,29.531,0,39.139v122.926c0,9.608,7.787,17.395,17.395,17.395h477.209
			c9.608,0,17.395-7.787,17.395-17.395V39.139C512,29.531,504.213,21.744,494.605,21.744z M477.21,144.67H34.79V56.535H477.21
			V144.67z"/>
	</g>
</g>
<g>
	<g>
		<path d="M358.922,223.529H153.658c-9.608,0-17.395,7.787-17.395,17.395v82.917c0,9.608,7.787,17.395,17.395,17.395h205.264
			c9.614,0,17.395-7.787,17.395-17.395v-82.917C376.317,231.316,368.53,223.529,358.922,223.529z M341.527,306.446H171.053v-48.127
			h170.473V306.446z"/>
	</g>
</g>
<g>
</g>
<g>
</g>
<g>
</g>
<g>
</g>
<g>
</g>
<g>
</g>
<g>
</g>
<g>
</g>
<g>
</g>
<g>
</g>
<g>
</g>
<g>
</g>
<g>
</g>
<g>
</g>
<g>
</g>
</svg>
