<svg width="35" height="32" viewBox="0 0 35 32" fill="none" xmlns="http://www.w3.org/2000/svg">
	<path fill-rule="evenodd" clip-rule="evenodd"
	      class="elemFillColor"
	      d="M32.076 12.0124H31.4928V2.944C31.49 2.16363 31.1815 1.41623 30.6349 0.865697C30.0882 0.31517 29.3481 0.00645358 28.5769 0.00724946H2.92103C2.1498 0.00656626 1.40976 0.315319 0.863154 0.865822C0.316546 1.41633 0.00796793 2.16366 0.00506592 2.944V18.0203C0.00763378 18.8008 0.316064 19.5485 0.862708 20.0993C1.40935 20.65 2.14958 20.959 2.92103 20.9583H3.50338V29.056C3.50595 29.8366 3.81436 30.5843 4.361 31.1351C4.90763 31.686 5.64785 31.995 6.41934 31.9944H32.076C32.8475 31.995 33.5877 31.686 34.1342 31.1351C34.6808 30.5843 34.9891 29.8366 34.9916 29.056V14.9508C34.9891 14.1703 34.6808 13.4226 34.1342 12.8717C33.5877 12.3208 32.8475 12.0118 32.076 12.0124ZM1.17187 2.944C1.17355 2.47588 1.35863 2.02754 1.68652 1.69729C2.01442 1.36704 2.45837 1.18183 2.92103 1.18229H28.5769C29.0396 1.18183 29.4836 1.36702 29.8115 1.69726C30.1395 2.0275 30.3247 2.47584 30.3265 2.944V4.70656H1.17187V2.944ZM1.17187 5.88202H30.3265V8.23466H1.17187V5.8833V5.88202ZM3.50338 14.9508V19.7832H2.92103C2.45816 19.7837 2.01401 19.5983 1.68608 19.2678C1.35814 18.9373 1.17321 18.4886 1.17187 18.0203V9.4097H30.3265V12.0124H6.41934C5.64785 12.0118 4.90763 12.3208 4.361 12.8717C3.81436 13.4225 3.50595 14.1702 3.50338 14.9508ZM26.8281 12.0124H24.4958H26.8281ZM23.3294 12.0124H20.9979H23.3294ZM33.8248 29.056C33.8234 29.5243 33.6386 29.9729 33.3107 30.3034C32.9829 30.6339 32.5388 30.8193 32.076 30.819H6.41934C5.95654 30.8192 5.51252 30.6338 5.18464 30.3033C4.85675 29.9728 4.67175 29.5243 4.67019 29.056V14.9508C4.67175 14.4826 4.85676 14.0341 5.18466 13.7037C5.51256 13.3733 5.95657 13.1879 6.41934 13.1883H32.076C32.5388 13.1878 32.9828 13.3731 33.3107 13.7036C33.6385 14.034 33.8234 14.4826 33.8248 14.9508V29.056ZM7.00211 27.2922H16.3324V28.4676H7.00211V27.2922ZM7.00211 23.7662H11.6677V24.9416H7.00211V23.7653V23.7662ZM13.4168 23.7662H18.0815V24.9416H13.4168V23.7653V23.7662ZM18.6651 27.2922H27.9937V28.4676H18.6651V27.2922ZM29.7433 20.2398V18.4772H30.326C30.4454 18.4775 30.5619 18.4405 30.6598 18.3714C30.7577 18.3022 30.8321 18.2042 30.8731 18.0908C30.914 17.9773 30.9194 17.8539 30.8885 17.7372C30.8576 17.6205 30.792 17.5163 30.7005 17.4387L27.2005 14.4998C27.0958 14.4116 26.9638 14.3632 26.8275 14.3632C26.6912 14.3632 26.5592 14.4116 26.4545 14.4998L22.9545 17.4387C22.8629 17.5161 22.7971 17.6202 22.766 17.7369C22.735 17.8535 22.7402 17.977 22.781 18.0905C22.8218 18.204 22.8961 18.302 22.994 18.3712C23.0918 18.4404 23.2083 18.4774 23.3277 18.4772H23.9105V20.2398H22.7471V21.4157H30.9096V20.2398H29.7433ZM26.2433 20.2398H25.0786V18.4772H26.2454V20.2398H26.2433ZM28.5752 20.2398H27.4096V18.4772H28.5752V20.2398ZM24.9402 17.3013L26.8281 15.7158L28.7169 17.3013H24.9402Z"
	      fill="#022258"/>
</svg>
