<?xml version="1.0" encoding="utf-8"?>
<!-- Svg Vector Icons : http://www.onlinewebfonts.com/icon -->
<!DOCTYPE svg PUBLIC "-//W3C//DTD SVG 1.1//EN" "http://www.w3.org/Graphics/SVG/1.1/DTD/svg11.dtd">
<svg version="1.1" xmlns="http://www.w3.org/2000/svg" xmlns:xlink="http://www.w3.org/1999/xlink" x="0px" y="0px" viewBox="0 0 1000 1000" enable-background="new 0 0 1000 1000" xml:space="preserve">
<metadata> Svg Vector Icons : http://www.onlinewebfonts.com/icon </metadata>
<g><g transform="translate(0.000000,511.000000) scale(0.100000,-0.100000)"><path d="M466.1,4493.9c-11-4.4-48.3-13.2-81.2-19.7c-76.8-17.6-206.3-129.5-252.4-219.5c-72.4-138.3-52.7-228.3,364.4-1681.3c219.5-766,419.2-1459.6,443.4-1540.9c24.2-81.2,68-177.8,98.8-212.9c107.5-129.5,313.9-131.7,430.2-8.8c30.7,35.1,138.3,256.8,239.2,493.9c101,239.2,193.1,434.6,201.9,434.6c30.7,0,428-414.8,625.6-651.9c757.3-910.9,1189.7-1935.9,1356.5-3211.2c22-177.8,39.5-544.3,48.3-1031.6l15.4-757.3l61.5-103.2c70.2-120.7,155.8-186.6,294.1-228.3c144.9-43.9,1229.2-43.9,1376.2,0c142.7,43.9,241.4,125.1,300.7,248c50.5,103.2,52.7,127.3,68,851.6c6.6,410.5,24.1,836.3,37.3,943.8c166.8,1323.5,577.3,2324.4,1336.7,3250.7c208.5,254.6,621.2,689.2,654.1,689.2c11,0,103.2-197.5,206.3-441.2c111.9-265.6,208.5-460.9,243.6-493.9c149.3-142.7,379.7-101,476.3,90c11,24.1,217.3,730.9,456.5,1569.4c302.9,1064.5,434.6,1556.2,432.4,1626.4c-4.4,223.9-184.4,399.5-410.5,399.5c-94.4,0-1595.7-414.8-3046.6-842.9c-180-52.7-272.2-125.1-302.9-241.4c-30.7-109.7-2.2-208.5,83.4-287.5c32.9-30.7,239.3-133.9,458.8-226.1l399.5-171.2l-259-276.6c-500.4-531.2-818.7-952.6-1154.5-1525.5c-228.3-390.7-535.5-1093.1-627.7-1446.5c-15.4-57.1-35.1-103.2-41.7-103.2c-6.6,2.2-52.7,131.7-105.4,291.9c-237.1,719.9-654.1,1490.4-1156.7,2133.5c-206.3,263.4-256.8,322.7-575.1,662.9l-245.8,263.4l399.5,171.2c219.5,92.2,425.8,195.4,460.9,226.1c122.9,116.3,120.7,322.7-8.8,430.2c-35.1,30.7-131.7,74.6-212.9,98.8c-654.1,193.2-2928.1,836.3-2989.5,845C523.2,4498.3,479.3,4498.3,466.1,4493.9z"/></g></g>
</svg>