<svg width="35" height="35" viewBox="0 0 35 35" fill="none" xmlns="http://www.w3.org/2000/svg">
	<path fill-rule="evenodd" clip-rule="evenodd"
	      class="elemFillColor"
	      d="M25.6938 21.3244C22.9653 21.3244 20.9063 22.4999 20.9063 24.0584V32.2584C20.9063 33.8169 22.9648 34.9924 25.6938 34.9924C28.4228 34.9924 30.4803 33.8169 30.4803 32.2584V24.0584C30.4803 22.4999 28.4233 21.3244 25.6938 21.3244ZM29.1128 32.2604C29.1128 32.8179 27.7808 33.6274 25.6938 33.6274C23.6068 33.6274 22.2738 32.8179 22.2738 32.2604V31.4764C23.329 32.0233 24.5058 32.2931 25.6938 32.2604C26.8815 32.2931 28.058 32.0233 29.1128 31.4764V32.2604ZM29.1128 29.5264C29.1128 30.0839 27.7808 30.8934 25.6938 30.8934C23.6068 30.8934 22.2738 30.0834 22.2738 29.5264V28.7424C23.3289 29.2895 24.5058 29.5593 25.6938 29.5264C26.8815 29.5593 28.0581 29.2895 29.1128 28.7424V29.5264ZM29.1128 26.7924C29.1128 27.3499 27.7808 28.1589 25.6938 28.1589C23.6068 28.1589 22.2738 27.3494 22.2738 26.7924V26.0084C23.3287 26.556 24.5057 26.826 25.6938 26.7929C26.8816 26.8258 28.0582 26.5559 29.1128 26.0084V26.7929V26.7924ZM25.6938 25.4254C23.6063 25.4254 22.2738 24.6159 22.2738 24.0584C22.2738 23.5009 23.6063 22.6914 25.6938 22.6914C27.7813 22.6914 29.1133 23.4999 29.1133 24.0584C29.1133 24.6169 27.7808 25.4254 25.6938 25.4254ZM34.9938 17.9159C34.7226 13.4952 32.7427 9.35322 29.4728 6.36591C26.4019 3.46809 22.3911 1.77149 18.1728 1.58591V0.683413C18.1728 0.502005 18.1008 0.328026 17.9725 0.199751C17.8442 0.0714766 17.6702 -0.000587463 17.4888 -0.000587463C17.3074 -0.000587463 17.1334 0.0714766 17.0052 0.199751C16.8769 0.328026 16.8048 0.502005 16.8048 0.683413V1.58641C12.5888 1.77158 8.58043 3.46838 5.51282 6.36641C2.24667 9.35544 0.269877 13.4967 -0.000175597 17.9159C-0.009807 18.0875 0.0455167 18.2563 0.154781 18.3889C0.264045 18.5215 0.419235 18.6081 0.589452 18.6314C0.759669 18.6547 0.932428 18.6131 1.07333 18.5148C1.21424 18.4165 1.31295 18.2687 1.34982 18.1009C1.46582 17.5759 2.93282 16.8134 4.96632 16.8134C7.05282 16.8134 8.38532 17.6229 8.38532 18.1804C8.38531 18.3599 8.45596 18.5322 8.582 18.66C8.70804 18.7879 8.87933 18.8609 9.05882 18.8634H9.08082C9.25951 18.8624 9.43066 18.7913 9.55752 18.6655C9.68439 18.5396 9.75684 18.3691 9.75932 18.1904C9.75932 18.1664 9.75932 18.1434 9.75932 18.1194C9.87482 17.5904 11.3468 16.8139 13.3818 16.8139C15.4703 16.8139 16.8008 17.6234 16.8008 18.1809V31.5769C16.8008 32.121 16.5847 32.6428 16.2 33.0275C15.8152 33.4123 15.2934 33.6284 14.7493 33.6284C14.2052 33.6284 13.6834 33.4123 13.2987 33.0275C12.914 32.6428 12.6978 32.121 12.6978 31.5769V30.2099C12.6978 30.0285 12.6258 29.8545 12.4975 29.7263C12.3692 29.598 12.1952 29.5259 12.0138 29.5259C11.8324 29.5259 11.6584 29.598 11.5302 29.7263C11.4019 29.8545 11.3298 30.0285 11.3298 30.2099V31.5764C11.3298 32.4833 11.6901 33.3531 12.3314 33.9944C12.9727 34.6356 13.8424 34.9959 14.7493 34.9959C15.6562 34.9959 16.526 34.6356 17.1673 33.9944C17.8086 33.3531 18.1688 32.4833 18.1688 31.5764V18.1809C18.1688 17.6234 19.5003 16.8139 21.5878 16.8139C23.6378 16.8139 25.1153 17.5924 25.2288 18.1214C25.2288 18.1449 25.2288 18.1674 25.2288 18.1909C25.2315 18.3704 25.3046 18.5416 25.4323 18.6676C25.5601 18.7936 25.7324 18.8643 25.9118 18.8644H25.9298C26.1093 18.8618 26.2805 18.7887 26.4065 18.6609C26.5325 18.5331 26.6032 18.3609 26.6033 18.1814C26.6033 17.6239 27.9358 16.8144 30.0223 16.8144C32.0568 16.8144 33.5223 17.5764 33.6383 18.1009C33.6669 18.2771 33.7631 18.4351 33.9066 18.5412C34.05 18.6474 34.2292 18.6933 34.406 18.6692C34.5828 18.645 34.7432 18.5527 34.8529 18.412C34.9626 18.2713 35.013 18.0933 34.9933 17.9159H34.9938ZM8.48682 16.2909C7.4098 15.7001 6.19418 15.4085 4.96632 15.4464C3.89969 15.4361 2.84123 15.6333 1.84982 16.0269C1.75532 16.0674 1.66582 16.1074 1.57832 16.1499C2.15748 13.1517 3.56632 10.3762 5.64463 8.13894C7.72295 5.9017 10.3873 4.29253 13.3348 3.49441C12.444 4.40364 11.6948 5.44156 11.1123 6.57341C9.59366 9.6035 8.70059 12.9083 8.48632 16.2909H8.48682ZM21.5908 15.4464C20.403 15.4135 19.2264 15.6835 18.1718 16.2309V7.58641C18.1718 7.405 18.0998 7.23103 17.9715 7.10275C17.8432 6.97448 17.6692 6.90241 17.4878 6.90241C17.3064 6.90241 17.1324 6.97448 17.0042 7.10275C16.8759 7.23103 16.8038 7.405 16.8038 7.58641V16.2309C15.7492 15.6835 14.5726 15.4135 13.3848 15.4464C12.1682 15.4307 10.9643 15.6959 9.86682 16.2214C10.4668 9.31341 13.4043 3.68341 16.8038 3.00791V8.04291C16.8038 8.22432 16.8759 8.3983 17.0042 8.52657C17.1324 8.65485 17.3064 8.72691 17.4878 8.72691C17.6692 8.72691 17.8432 8.65485 17.9715 8.52657C18.0998 8.3983 18.1718 8.22432 18.1718 8.04291V3.00741C21.5793 3.68141 24.5258 9.31191 25.1263 16.2249C24.0233 15.6968 22.8132 15.4303 21.5903 15.4464H21.5908ZM33.1408 16.0269C32.1499 15.6336 31.0919 15.4364 30.0258 15.4464C28.7978 15.4085 27.582 15.7001 26.5048 16.2909C26.2897 12.9077 25.3938 9.60265 23.8708 6.57391C23.2866 5.44173 22.5357 4.40366 21.6433 3.49441C24.5929 4.29095 27.2598 5.89936 29.3405 8.13667C31.4211 10.374 32.8321 13.1503 33.4128 16.1499C33.3258 16.1074 33.2348 16.0669 33.1418 16.0269H33.1408Z"
	      fill="#022258"/>
</svg>
