<svg width="22" height="20" viewBox="0 0 22 20" fill="none" xmlns="http://www.w3.org/2000/svg">
<circle cx="3.5" cy="3.5" r="2.5" fill="#FF0505"/>
<path fill-rule="evenodd" clip-rule="evenodd" d="M4 6.96456C5.69615 6.72194 7 5.26324 7 3.5C7 2.9632 6.87915 2.45463 6.66318 2L20 2C21.1046 2 22 2.89543 22 4V18C22 19.1046 21.1046 20 20 20H6C4.89543 20 4 19.1046 4 18V6.96456Z" fill="white"/>
<path fill-rule="evenodd" clip-rule="evenodd" d="M9.53042 7.5499C9.12717 7.5499 8.8 7.88257 8.8 8.29209V8.72891C8.8 9.03226 8.91536 9.32398 9.1217 9.5434L11.3824 11.9473C11.3827 11.9476 11.3833 11.9475 11.3836 11.9472V11.9472C11.3838 11.9468 11.3844 11.9467 11.3847 11.947C11.8208 12.3939 12.0662 12.9978 12.0662 13.6275V15.761C12.0662 15.9036 12.2154 15.9946 12.3392 15.9273L13.627 15.2256C13.8214 15.1194 13.9427 14.9131 13.9427 14.6892V13.6219C13.9427 12.9955 14.1849 12.3938 14.6175 11.9479L16.8788 9.5434C17.0846 9.32398 17.2 9.03226 17.2 8.72891V8.29209C17.2 7.88257 16.8733 7.5499 16.4701 7.5499H9.53042Z" fill="#02225C" stroke="#02225C" stroke-width="0.56" stroke-linecap="round" stroke-linejoin="round"/>
</svg>
