<svg width="17" height="17" viewBox="0 0 17 17" fill="none" xmlns="http://www.w3.org/2000/svg">
    <path fill-rule="evenodd" clip-rule="evenodd" d="M4.04345 2.8999C3.46738 2.8999 3 3.37515 3 3.96017V4.5842C3 5.01755 3.16479 5.43429 3.45957 5.74775L6.69007 9.18279L6.69149 9.18062C7.31514 9.81909 7.66604 10.6822 7.66604 11.5821V14.63C7.66604 14.8337 7.87913 14.9637 8.056 14.8676L9.8957 13.8652C10.1734 13.7135 10.3468 13.4188 10.3468 13.0988V11.5742C10.3468 10.6793 10.6927 9.81981 11.3106 9.18279L14.5411 5.74775C14.8352 5.43429 15 5.01755 15 4.5842V3.96017C15 3.37515 14.5333 2.8999 13.9573 2.8999H4.04345Z" fill="white"/>
</svg>
