<svg width="18" height="18" viewBox="0 0 18 18" fill="none" xmlns="http://www.w3.org/2000/svg">
<path d="M0 2C0 0.89543 0.895431 0 2 0H16C17.1046 0 18 0.895431 18 2V16C18 17.1046 17.1046 18 16 18H2C0.89543 18 0 17.1046 0 16V2Z" fill="white"/>
<path fill-rule="evenodd" clip-rule="evenodd" d="M5.53042 5.5499C5.12717 5.5499 4.8 5.88257 4.8 6.29208V6.7289C4.8 7.03225 4.91536 7.32397 5.1217 7.54339L7.38242 9.94725C7.38274 9.94759 7.3833 9.94754 7.38355 9.94715V9.94715C7.3838 9.94676 7.38435 9.94671 7.38467 9.94704C7.82084 10.3939 8.06623 10.9978 8.06623 11.6274V13.761C8.06623 13.9036 8.21539 13.9946 8.3392 13.9273L9.62699 13.2256C9.82141 13.1194 9.94273 12.9131 9.94273 12.6892V11.6219C9.94273 10.9955 10.1849 10.3938 10.6175 9.94791L12.8788 7.54339C13.0846 7.32397 13.2 7.03225 13.2 6.7289V6.29208C13.2 5.88257 12.8733 5.5499 12.4701 5.5499H5.53042Z" fill="#02225C" stroke="#02225C" stroke-width="0.56" stroke-linecap="round" stroke-linejoin="round"/>
</svg>
