<?xml version="1.0" encoding="iso-8859-1"?>
<!-- Generator: Adobe Illustrator 19.0.0, SVG Export Plug-In . SVG Version: 6.00 Build 0)  -->
<svg version="1.1" id="Layer_1" xmlns="http://www.w3.org/2000/svg" xmlns:xlink="http://www.w3.org/1999/xlink" x="0px" y="0px"
	 viewBox="0 0 512 512" style="enable-background:new 0 0 512 512;" xml:space="preserve">
<g>
	<g>
		<path d="M437.405,45.577c-5.646-3.289-15.224-7.809-28.132-12.224c-51.035-17.455-107.519-17.455-163.188,11.769
			c-44.074,23.126-88.729,23.126-129.552,9.17c-3.709-1.268-7.007-2.521-9.866-3.696V21.333C106.667,9.551,97.115,0,85.333,0
			C73.551,0,64,9.551,64,21.333v42.677v213.717v212.939C64,502.449,73.551,512,85.333,512c11.782,0,21.333-9.551,21.333-21.333
			V309.681c49.994,16.121,105.004,15.399,159.246-13.062c44.077-23.128,88.732-23.128,129.556-9.172
			c10.056,3.438,17.121,6.77,20.464,8.717c14.222,8.281,32.068-1.978,32.068-18.436V64.011
			C448,56.419,443.965,49.399,437.405,45.577z M405.333,245.767c-49.993-16.12-105.005-15.39-159.246,13.071
			c-44.077,23.128-88.732,23.128-129.556,9.172c-3.707-1.267-7.008-2.52-9.866-3.695V95.972
			c49.993,16.12,105.005,15.39,159.246-13.071c44.079-23.139,88.732-23.139,129.553-9.178c3.708,1.268,7.01,2.522,9.868,3.698
			V245.767z"/>
	</g>
</g>
<g>
</g>
<g>
</g>
<g>
</g>
<g>
</g>
<g>
</g>
<g>
</g>
<g>
</g>
<g>
</g>
<g>
</g>
<g>
</g>
<g>
</g>
<g>
</g>
<g>
</g>
<g>
</g>
<g>
</g>
</svg>
