<svg width="51" height="50" viewBox="0 0 51 50" fill="none" xmlns="http://www.w3.org/2000/svg">
<path d="M6.40706 38.8889H10.5737C10.9421 38.8889 11.2953 38.7426 11.5558 38.4821C11.8163 38.2216 11.9626 37.8684 11.9626 37.5V22.2222C11.9626 21.8539 11.8163 21.5006 11.5558 21.2401C11.2953 20.9797 10.9421 20.8333 10.5737 20.8333H9.18483V19.4444C9.18483 15.0242 10.9408 10.7849 14.0664 7.65933C17.192 4.53373 21.4312 2.77778 25.8515 2.77778C30.2718 2.77778 34.511 4.53373 37.6366 7.65933C40.7622 10.7849 42.5182 15.0242 42.5182 19.4444V20.8333H41.1293C40.7609 20.8333 40.4076 20.9797 40.1472 21.2401C39.8867 21.5006 39.7404 21.8539 39.7404 22.2222V37.5C39.7404 37.8684 39.8867 38.2216 40.1472 38.4821C40.4076 38.7426 40.7609 38.8889 41.1293 38.8889H42.3932C42.0652 40.8293 41.0611 42.5909 39.5588 43.862C38.0564 45.133 36.1527 45.8313 34.1848 45.8333H31.4071C31.247 45.049 30.8208 44.3442 30.2007 43.838C29.5807 43.3318 28.8047 43.0554 28.0043 43.0556H23.8376C22.9167 43.0556 22.0335 43.4214 21.3824 44.0725C20.7312 44.7237 20.3654 45.6069 20.3654 46.5278C20.3654 47.4487 20.7312 48.3318 21.3824 48.983C22.0335 49.6342 22.9167 50 23.8376 50H28.0043C28.5431 49.9989 29.0744 49.8729 29.5564 49.632C30.0383 49.391 30.4579 49.0415 30.7821 48.6111H34.1848C36.8894 48.6087 39.5002 47.6198 41.5278 45.83C43.5555 44.0402 44.8607 41.5723 45.1987 38.8889H45.2959C46.7694 38.8889 48.1824 38.3036 49.2243 37.2617C50.2662 36.2198 50.8515 34.8068 50.8515 33.3333V26.3889C50.8515 24.9155 50.2662 23.5024 49.2243 22.4605C48.1824 21.4186 46.7694 20.8333 45.2959 20.8333V19.4444C45.2959 14.2875 43.2473 9.34169 39.6008 5.69515C35.9543 2.0486 31.0085 0 25.8515 0C20.6945 0 15.7487 2.0486 12.1022 5.69515C8.45566 9.34169 6.40706 14.2875 6.40706 19.4444V20.8333C4.93363 20.8333 3.52055 21.4186 2.47869 22.4605C1.43682 23.5024 0.851501 24.9155 0.851501 26.3889V33.3333C0.851501 34.8068 1.43682 36.2198 2.47869 37.2617C3.52055 38.3036 4.93363 38.8889 6.40706 38.8889ZM27.9348 47.2222H23.7682C23.584 47.2222 23.4074 47.1491 23.2771 47.0188C23.1469 46.8886 23.0737 46.712 23.0737 46.5278C23.0737 46.3436 23.1469 46.167 23.2771 46.0367C23.4074 45.9065 23.584 45.8333 23.7682 45.8333H27.9348C28.119 45.8333 28.2956 45.9065 28.4259 46.0367C28.5561 46.167 28.6293 46.3436 28.6293 46.5278C28.6293 46.712 28.5561 46.8886 28.4259 47.0188C28.2956 47.1491 28.119 47.2222 27.9348 47.2222ZM48.0737 26.3889V33.3333C48.0737 34.07 47.7811 34.7766 47.2601 35.2975C46.7392 35.8185 46.0327 36.1111 45.2959 36.1111H42.5182V23.6111H45.2959C46.0327 23.6111 46.7392 23.9038 47.2601 24.4247C47.7811 24.9456 48.0737 25.6522 48.0737 26.3889ZM3.62928 26.3889C3.62928 25.6522 3.92194 24.9456 4.44287 24.4247C4.96381 23.9038 5.67034 23.6111 6.40706 23.6111H9.18483V36.1111H6.40706C5.67034 36.1111 4.96381 35.8185 4.44287 35.2975C3.92194 34.7766 3.62928 34.07 3.62928 33.3333V26.3889Z" fill="#D8D8D9"/>
<path d="M25.8514 37.0475C27.1498 37.0546 28.4316 36.7552 29.5924 36.1736C30.7532 35.592 31.7604 34.7446 32.532 33.7003C32.6396 33.5526 32.7171 33.3851 32.76 33.2074C32.8028 33.0297 32.8103 32.8453 32.7819 32.6648C32.7536 32.4842 32.6899 32.311 32.5946 32.1551C32.4993 31.9991 32.3742 31.8635 32.2264 31.7558C32.0787 31.6482 31.9112 31.5708 31.7335 31.5279C31.5559 31.485 31.3715 31.4775 31.1909 31.5059C31.0104 31.5343 30.8372 31.5979 30.6812 31.6933C30.5253 31.7886 30.3896 31.9137 30.282 32.0614C29.764 32.7461 29.0944 33.3015 28.3256 33.6838C27.5569 34.0662 26.71 34.2652 25.8514 34.2652C24.9929 34.2652 24.146 34.0662 23.3773 33.6838C22.6085 33.3015 21.9389 32.7461 21.4209 32.0614C21.3133 31.9137 21.1776 31.7886 21.0217 31.6933C20.8657 31.5979 20.6925 31.5343 20.5119 31.5059C20.3314 31.4775 20.147 31.485 19.9693 31.5279C19.7917 31.5708 19.6242 31.6482 19.4764 31.7558C19.3287 31.8635 19.2036 31.9991 19.1083 32.1551C19.013 32.311 18.9493 32.4842 18.921 32.6648C18.8926 32.8453 18.9001 33.0297 18.9429 33.2074C18.9858 33.3851 19.0633 33.5526 19.1709 33.7003C19.9425 34.7446 20.9496 35.592 22.1105 36.1736C23.2713 36.7552 24.5531 37.0546 25.8514 37.0475Z" fill="#D8D8D9"/>
</svg>
