<svg width="36" height="34" viewBox="0 0 36 34" fill="none" xmlns="http://www.w3.org/2000/svg">
    <path d="M21.5573 31.5574H16.7573C15.4318 31.5574 14.3573 30.4828 14.3573 29.1574L14.3574 14.7574C14.3574 13.4319 15.4319 12.3574 16.7574 12.3574H27.5577C28.8831 12.3574 29.9577 13.4319 29.9577 14.7574V19.5574M18.5577 17.1574H25.7577M18.5577 20.7574H25.7577M18.5577 24.3574H22.1577M25.1575 28.2485L30.2487 23.1573L33.6428 26.5514L28.5516 31.6426H25.1575V28.2485Z" stroke="#3A90C2" stroke-linecap="round" stroke-linejoin="round"/>
    <path d="M26 10.5V10.5C26 9.67157 25.3284 9 24.5 9H13C11.8954 9 11 9.89543 11 11V26.4483C11 27.3053 11.6947 28 12.5517 28V28" stroke="#3A90C2"/>
    <circle cx="9.5" cy="9.5" r="9.5" fill="#02225C"/>
</svg>
