<svg width="34" height="22" viewBox="0 0 34 22" fill="none" xmlns="http://www.w3.org/2000/svg">
<rect width="34" height="22" rx="2" fill="white"/>
<rect x="0.5" y="0.5" width="33" height="21" rx="1.5" stroke="#022258"/>
<path d="M3.64645 10.6464C3.45118 10.8417 3.45118 11.1583 3.64645 11.3536L6.82843 14.5355C7.02369 14.7308 7.34027 14.7308 7.53553 14.5355C7.7308 14.3403 7.7308 14.0237 7.53553 13.8284L4.70711 11L7.53553 8.17157C7.7308 7.97631 7.7308 7.65973 7.53553 7.46447C7.34027 7.2692 7.02369 7.2692 6.82843 7.46447L3.64645 10.6464ZM4 11.5L14 11.5L14 10.5L4 10.5L4 11.5Z" fill="#022258"/>
<path d="M31.3536 10.6464C31.5488 10.8417 31.5488 11.1583 31.3536 11.3536L28.1716 14.5355C27.9763 14.7308 27.6597 14.7308 27.4645 14.5355C27.2692 14.3403 27.2692 14.0237 27.4645 13.8284L30.2929 11L27.4645 8.17157C27.2692 7.97631 27.2692 7.65973 27.4645 7.46447C27.6597 7.2692 27.9763 7.2692 28.1716 7.46447L31.3536 10.6464ZM31 11.5L21 11.5L21 10.5L31 10.5L31 11.5Z" fill="#022258"/>
<line x1="17.5" y1="4" x2="17.5" y2="17" stroke="#022258"/>
</svg>
