<svg width="27" height="27" viewBox="0 0 27 27" fill="none" xmlns="http://www.w3.org/2000/svg">
	<g clip-path="url(#clip0_190_739)">
		<path d="M8.4375 24.3633C8.4375 24.6546 8.20143 24.8906 7.91016 24.8906C7.61888 24.8906 7.38281 24.6546 7.38281 24.3633C7.38281 24.072 7.61888 23.8359 7.91016 23.8359C8.20143 23.8359 8.4375 24.072 8.4375 24.3633Z"
		      fill="#02225C"
		      class="elemFillColor"/>
		<path d="M25.418 5.27344H20.6719V2.63672C20.6719 1.18282 19.4891 0 18.0352 0H8.96484C7.51094 0 6.32812 1.18282 6.32812 2.63672V5.27344H1.58203C0.709648 5.27344 0 5.98309 0 6.85547V15.6094C0 16.4414 0.397568 17.2229 1.05469 17.7177V24.3633C1.05469 25.8172 2.2375 27 3.69141 27H23.3086C24.7625 27 25.9453 25.8172 25.9453 24.3633V17.7177C26.6022 17.2231 27 16.4416 27 15.6094V6.85547C27 5.98309 26.2904 5.27344 25.418 5.27344ZM7.38281 2.63672C7.38281 1.76434 8.09246 1.05469 8.96484 1.05469H18.0352C18.9075 1.05469 19.6172 1.76434 19.6172 2.63672V5.27344H18.5625V2.63672C18.5625 2.34544 18.3264 2.10938 18.0352 2.10938H8.96484C8.67357 2.10938 8.4375 2.34544 8.4375 2.63672V5.27344H7.38281V2.63672ZM17.5078 5.27344H9.49219V3.16406H17.5078V5.27344ZM23.3086 25.9453H3.69141C2.81902 25.9453 2.10938 25.2357 2.10938 24.3633V18.1925C2.28241 18.2278 2.45895 18.2461 2.63672 18.2461H3.69141V18.7734C3.69141 19.0647 3.92747 19.3008 4.21875 19.3008V20.8828C4.21875 21.7568 4.92675 22.4648 5.80078 22.4648C6.67316 22.4648 7.38281 21.7552 7.38281 20.8828V19.3008C7.67409 19.3008 7.91016 19.0647 7.91016 18.7734V18.2461H19.0898V18.7734C19.0898 19.0647 19.3259 19.3008 19.6172 19.3008V20.8828C19.6172 21.7568 20.3252 22.4648 21.1992 22.4648C22.0716 22.4648 22.7812 21.7552 22.7812 20.8828V19.3008C23.0725 19.3008 23.3086 19.0647 23.3086 18.7734V18.2461H24.3633C24.5411 18.2461 24.7176 18.2278 24.8906 18.1925V24.3633C24.8906 25.2357 24.181 25.9453 23.3086 25.9453ZM4.74609 16.1367H6.85547V18.2461H4.74609V16.1367ZM5.27344 19.3008H6.32812V20.8828C6.32812 21.1737 6.09164 21.4102 5.80078 21.4102C5.50971 21.4102 5.27344 21.1739 5.27344 20.8828V19.3008ZM6.32812 15.082H5.27344V14.0273H6.32812V15.082ZM20.1445 16.1367H22.2539V18.2461H20.1445V16.1367ZM20.6719 19.3008H21.7266V20.8828C21.7266 21.1737 21.4901 21.4102 21.1992 21.4102C20.9081 21.4102 20.6719 21.1739 20.6719 20.8828V19.3008ZM21.7266 15.082H20.6719V14.0273H21.7266V15.082ZM25.9453 15.6094C25.9453 16.4682 25.2501 17.1914 24.3633 17.1914H23.3086V15.6094C23.3086 15.3181 23.0725 15.082 22.7812 15.082V13.5C22.7812 13.2087 22.5452 12.9727 22.2539 12.9727H20.1445C19.8533 12.9727 19.6172 13.2087 19.6172 13.5V15.082C19.3259 15.082 19.0898 15.3181 19.0898 15.6094V17.1914H7.91016V15.6094C7.91016 15.3181 7.67409 15.082 7.38281 15.082V13.5C7.38281 13.2087 7.14674 12.9727 6.85547 12.9727H4.74609C4.45482 12.9727 4.21875 13.2087 4.21875 13.5V15.082C3.92747 15.082 3.69141 15.3181 3.69141 15.6094V17.1914H2.63672C1.74765 17.1914 1.05469 16.4659 1.05469 15.6094V6.85547C1.05469 6.56461 1.29117 6.32812 1.58203 6.32812H25.418C25.7088 6.32812 25.9453 6.56461 25.9453 6.85547V15.6094Z"
		      fill="#02225C"
		      class="elemFillColor"/>
		<path d="M19.0898 23.8359H10.0195C9.72826 23.8359 9.49219 24.072 9.49219 24.3633C9.49219 24.6546 9.72826 24.8906 10.0195 24.8906H19.0898C19.3811 24.8906 19.6172 24.6546 19.6172 24.3633C19.6172 24.072 19.3811 23.8359 19.0898 23.8359Z"
		      fill="#02225C"
		      class="elemFillColor"/>
	</g>
	<defs>
		<clipPath id="clip0_190_739">
			<rect width="27" height="27" fill="white"/>
		</clipPath>
	</defs>
</svg>
