<?xml version="1.0" encoding="iso-8859-1"?>
<!-- Generator: Adobe Illustrator 19.0.0, SVG Export Plug-In . SVG Version: 6.00 Build 0)  -->
<svg version="1.1" id="Capa_1" xmlns="http://www.w3.org/2000/svg" xmlns:xlink="http://www.w3.org/1999/xlink" x="0px" y="0px"
	 viewBox="0 0 512 512" style="enable-background:new 0 0 512 512;" xml:space="preserve">
<g>
	<g>
		<path d="M256,0C114.615,0,0,114.615,0,256s114.615,256,256,256s256-114.615,256-256C511.835,114.683,397.317,0.165,256,0z
			 M256,490.667C126.397,490.667,21.333,385.603,21.333,256S126.397,21.333,256,21.333S490.667,126.397,490.667,256
			C490.52,385.542,385.542,490.52,256,490.667z"/>
	</g>
</g>
<g>
	<g>
		<path d="M426.464,169.685c0.003-0.539-0.036-1.078-0.117-1.611c-0.075-0.299-0.267-0.544-0.373-0.843
			c-0.172-0.496-0.383-0.977-0.629-1.44c-0.602-1.114-1.376-2.125-2.293-2.997c-0.629-0.55-1.324-1.019-2.069-1.397
			c-0.363-0.231-0.74-0.438-1.131-0.619c-1.224-0.496-2.53-0.76-3.851-0.779H96c-1.321,0.019-2.626,0.283-3.851,0.779
			c-0.39,0.181-0.768,0.388-1.131,0.619c-0.745,0.378-1.44,0.847-2.069,1.397c-0.917,0.872-1.691,1.884-2.293,2.997
			c-0.247,0.463-0.457,0.944-0.629,1.44c-0.107,0.299-0.299,0.544-0.373,0.843c-0.081,0.533-0.121,1.072-0.117,1.611
			c-0.084,0.323-0.152,0.651-0.203,0.981v170.667v0.117c0.006,1.162,0.204,2.316,0.587,3.413c0,0.117,0.128,0.203,0.171,0.32
			c0.158,0.369,0.343,0.725,0.555,1.067c0.395,0.767,0.883,1.484,1.451,2.133c0.294,0.311,0.603,0.607,0.928,0.885
			c0.646,0.57,1.363,1.054,2.133,1.44c0.352,0.181,0.683,0.384,1.067,0.533c1.202,0.479,2.482,0.736,3.776,0.757h320
			c1.291-0.023,2.566-0.279,3.765-0.757c0.373-0.149,0.704-0.352,1.067-0.533c0.767-0.392,1.483-0.876,2.133-1.44
			c0.325-0.279,0.635-0.574,0.928-0.885c0.57-0.648,1.058-1.365,1.451-2.133c0.211-0.341,0.397-0.698,0.555-1.067
			c0-0.117,0.128-0.203,0.171-0.32c0.382-1.098,0.581-2.251,0.587-3.413l0.011-0.117V170.667
			C426.616,170.336,426.548,170.009,426.464,169.685z M373.333,181.333L256,243.915l-117.333-62.581H373.333z M106.667,188.448
			l98.016,52.267l-98.016,78.421V188.448z M126.411,330.667l98.763-79.019l25.803,13.76c3.14,1.676,6.908,1.676,10.048,0
			l25.803-13.76l98.763,79.019H126.411z M405.333,319.136l-98.016-78.411l98.016-52.277V319.136z"/>
	</g>
</g>
<g>
</g>
<g>
</g>
<g>
</g>
<g>
</g>
<g>
</g>
<g>
</g>
<g>
</g>
<g>
</g>
<g>
</g>
<g>
</g>
<g>
</g>
<g>
</g>
<g>
</g>
<g>
</g>
<g>
</g>
</svg>
