<?xml version='1.0' encoding='utf-8'?>
<!DOCTYPE svg PUBLIC '-//W3C//DTD SVG 1.1//EN' 'http://www.w3.org/Graphics/SVG/1.1/DTD/svg11.dtd'>
<svg version="1.1" xmlns="http://www.w3.org/2000/svg" viewBox="16 16 62 62" xmlns:xlink="http://www.w3.org/1999/xlink"
	 enable-background="new 16 16 62 62">
	<g>
		<path d="M70.6,61.8h-8.9v8.9c0.7-0.2,1.2-0.5,1.5-0.8l6.6-6.6C70.1,62.9,70.4,62.4,70.6,61.8z
		 M60.6,57.2h10.3V25.1H25.1v45.8h32.1V60.6c0-1,0.3-1.8,1-2.4C58.8,57.5,59.6,57.2,60.6,57.2z M75.5,23.9v36.7c0,1-0.2,2-0.7,3.2
		s-1.1,2.1-1.7,2.7l-6.6,6.6c-0.7,0.7-1.6,1.2-2.7,1.7s-2.2,0.7-3.2,0.7H23.9c-1,0-1.8-0.3-2.4-1c-0.7-0.7-1-1.5-1-2.4V23.9
		c0-1,0.3-1.8,1-2.4s1.5-1,2.4-1h48.1c1,0,1.8,0.3,2.4,1C75.2,22.2,75.5,23,75.5,23.9z"/>
	</g>
</svg>
