<?xml version="1.0" encoding="utf-8"?>
<!-- Generator: Adobe Illustrator 19.0.0, SVG Export Plug-In . SVG Version: 6.00 Build 0)  -->
<svg version="1.1" id="Layer_1" xmlns="http://www.w3.org/2000/svg" xmlns:xlink="http://www.w3.org/1999/xlink" x="0px" y="0px"
	 viewBox="16 16 62 62"
	 enable-background="new 16 16 62 62"
	 style="enable-background:new 16 16 62 62" xml:space="preserve">
<style type="text/css">
	.st0{fill:#333333;}
</style>
<g id="XMLID_2_">
	<path id="XMLID_6_" class="st0" d="M57.2,60.6v14.9H23.9c-1,0-1.8-0.3-2.4-1c-0.7-0.7-1-1.5-1-2.4V23.9c0-1,0.3-1.8,1-2.4
		s1.5-1,2.4-1h48.1c1,0,1.8,0.3,2.4,1c0.7,0.7,1,1.5,1,2.4v33.2H60.6c-1,0-1.8,0.3-2.4,1C57.5,58.8,57.2,59.6,57.2,60.6z M61.8,61.8
		h13.6c-0.4,2-1.1,3.5-2.3,4.7l-6.6,6.6c-1.2,1.2-2.8,2-4.7,2.3V61.8z"/>
</g>
</svg>
