<?xml version='1.0' encoding='utf-8'?>
<!DOCTYPE svg PUBLIC '-//W3C//DTD SVG 1.1//EN' 'http://www.w3.org/Graphics/SVG/1.1/DTD/svg11.dtd'>
<svg version="1.1" xmlns="http://www.w3.org/2000/svg" viewBox="0 0 512 512" xmlns:xlink="http://www.w3.org/1999/xlink" enable-background="new 0 0 512 512">
  <g>
    <g>
      <path d="m401.3,211.4l-233.9-.1v-70.9c0-48.9 39.7-88.6 88.6-88.6s88.6,39.7 88.6,88.6v16.3c0,11.3 9.1,20.4 20.4,20.4 11.3,0 20.4-9.1 20.4-20.4v-16.3c0-71.3-58-129.4-129.4-129.4-71.4,0-129.4,58.1-129.4,129.4v71h-15.9c-17.3,0-31.5,14.1-31.5,31.4v226.7c0,17.3 14.1,31.5 31.5,31.5h290.7c17.3,0 31.5-14.1 31.5-31.5v-226.6c-0.1-17.4-14.2-31.5-31.6-31.5zm-9.4,248.8h-271.8v-208h271.9v208z"/>
      <path d="m256,433.5c11.3,0 20.4-9.1 20.4-20.4v-49.8c0-11.3-9.1-20.4-20.4-20.4s-20.4,9.1-20.4,20.4v49.8c2.84217e-14,11.3 9.1,20.4 20.4,20.4z"/>
    </g>
  </g>
</svg>
