<svg width="24" height="21" viewBox="0 -4 25 26" fill="none" xmlns="http://www.w3.org/2000/svg">
	<path fill-rule="evenodd" clip-rule="evenodd"
	      class="elemFillColor"
	      d="M23.341 19.7984H21.566V1.5136C21.566 1.38843 21.5162 1.26839 21.4276 1.17988C21.3389 1.09137 21.2187 1.04164 21.0933 1.04164H16.2804C16.2183 1.04164 16.1568 1.05385 16.0995 1.07757C16.0422 1.1013 15.9901 1.13606 15.9462 1.17989C15.9023 1.22372 15.8675 1.27575 15.8438 1.33301C15.8201 1.39027 15.8079 1.45164 15.8079 1.5136V19.7981H14.7171V8.46999C14.7171 8.40799 14.7048 8.3466 14.681 8.28934C14.6572 8.23207 14.6223 8.18005 14.5784 8.13625C14.5344 8.09244 14.4823 8.05771 14.4249 8.03404C14.3675 8.01037 14.306 7.99823 14.2439 7.9983H9.4312C9.3059 7.9983 9.18573 8.04799 9.09713 8.13645C9.00853 8.22491 8.95875 8.34489 8.95875 8.46999V19.7984H7.86742V15.9341C7.86742 15.8722 7.8552 15.8108 7.83144 15.7535C7.80768 15.6963 7.77286 15.6442 7.72897 15.6004C7.68507 15.5566 7.63296 15.5218 7.57561 15.4981C7.51825 15.4744 7.45678 15.4622 7.39471 15.4622H2.58203C2.51999 15.4622 2.45856 15.4745 2.40125 15.4982C2.34395 15.5219 2.29188 15.5567 2.24804 15.6005C2.20419 15.6444 2.16942 15.6964 2.14571 15.7536C2.122 15.8109 2.10982 15.8722 2.10985 15.9341V19.7984H1.0401V0.587451C1.04224 0.524238 1.03162 0.461241 1.00887 0.402212C0.986113 0.343183 0.951696 0.289328 0.907664 0.243855C0.863632 0.198382 0.810884 0.16222 0.752563 0.137522C0.694242 0.112825 0.631539 0.100098 0.568188 0.100098C0.504838 0.100098 0.442135 0.112825 0.383813 0.137522C0.325492 0.16222 0.272745 0.198382 0.228712 0.243855C0.18468 0.289328 0.150263 0.343183 0.127511 0.402212C0.104759 0.461241 0.0941373 0.524238 0.096278 0.587451V20.2698C0.0962071 20.3318 0.108377 20.3932 0.132091 20.4505C0.155806 20.5077 0.190599 20.5598 0.234481 20.6036C0.278362 20.6475 0.330471 20.6822 0.387825 20.7059C0.445178 20.7296 0.506652 20.7418 0.568727 20.7418H23.341C23.4663 20.7418 23.5864 20.6921 23.675 20.6036C23.7636 20.5152 23.8134 20.3952 23.8134 20.2701C23.8134 20.145 23.7636 20.025 23.675 19.9366C23.5864 19.8481 23.4663 19.7984 23.341 19.7984ZM6.92253 19.7984H3.05448V16.4061H6.92306V19.7984H6.92253ZM13.772 19.7984H9.90392V8.94222H13.7709V19.7984H13.772ZM20.6214 19.7984H16.7528V1.98557H20.6211V19.7981L20.6214 19.7984Z"
	      fill="#022258"/>
</svg>
