<?xml version="1.0" encoding="iso-8859-1"?>
<!-- Generator: Adobe Illustrator 19.0.0, SVG Export Plug-In . SVG Version: 6.00 Build 0)  -->
<svg version="1.1" id="Capa_1" xmlns="http://www.w3.org/2000/svg" xmlns:xlink="http://www.w3.org/1999/xlink" x="0px" y="0px"
	 viewBox="0 0 512 512" style="enable-background:new 0 0 512 512;" xml:space="preserve">
<g>
	<g>
		<path d="M497,0H15C6.716,0,0,6.716,0,15v433.801V497c0,8.284,6.716,15,15,15h482c8.285,0,15-6.716,15-15v-48.199V15
			C512,6.716,505.285,0,497,0z M482,407.37l-93.977-112.772c-2.573-3.089-6.279-5.015-10.285-5.347
			c-4.008-0.333-7.979,0.959-11.025,3.582l-73.677,63.436L163.154,198.275c-3.139-3.818-7.961-5.844-12.879-5.419
			c-4.924,0.426-9.322,3.249-11.759,7.55L30,391.905V30h452V407.37z"/>
	</g>
</g>
<g>
	<g>
		<path d="M352.4,96.4c-34.848,0-63.199,28.352-63.199,63.2c0,34.848,28.352,63.201,63.199,63.201
			c34.849,0,63.199-28.352,63.199-63.2C415.599,124.753,387.249,96.4,352.4,96.4z"/>
	</g>
</g>
<g>
</g>
<g>
</g>
<g>
</g>
<g>
</g>
<g>
</g>
<g>
</g>
<g>
</g>
<g>
</g>
<g>
</g>
<g>
</g>
<g>
</g>
<g>
</g>
<g>
</g>
<g>
</g>
<g>
</g>
</svg>
