<?xml version="1.0" encoding="iso-8859-1"?>
<!-- Generator: Adobe Illustrator 18.0.0, SVG Export Plug-In . SVG Version: 6.00 Build 0)  -->
<!DOCTYPE svg PUBLIC "-//W3C//DTD SVG 1.1//EN" "http://www.w3.org/Graphics/SVG/1.1/DTD/svg11.dtd">
<svg version="1.1" id="Capa_1" xmlns="http://www.w3.org/2000/svg" xmlns:xlink="http://www.w3.org/1999/xlink" x="0px" y="0px"
	 viewBox="0 0 378.786 378.786" style="enable-background:new 0 0 378.786 378.786;" xml:space="preserve">
<g>
	<rect x="266.626" y="152.409" width="29.56" height="25"/>
	<path d="M321.845,90.805h-27.872c1.568-4.542,2.432-9.409,2.432-14.478V61.62c0-24.525-19.952-44.478-44.477-44.478h-131.46
		c-24.524,0-44.477,19.952-44.477,44.478v14.707c0,5.068,0.864,9.936,2.432,14.478H56.941C25.544,90.805,0,116.349,0,147.746v105.63
		c0,31.397,25.544,56.941,56.941,56.941h19.051v17.002c0,18.927,15.397,34.324,34.324,34.324H268.47
		c18.927,0,34.325-15.397,34.325-34.324v-17.002h19.05c31.397,0,56.941-25.544,56.941-56.941v-105.63
		C378.786,116.349,353.242,90.805,321.845,90.805z M105.992,76.327V61.62c0-7.983,6.494-14.478,14.477-14.478h131.46
		c7.982,0,14.477,6.494,14.477,14.478v14.707c0,7.983-6.494,14.478-14.477,14.478h-131.46
		C112.486,90.805,105.992,84.311,105.992,76.327z M272.795,327.319c0,2.385-1.94,4.324-4.325,4.324H110.316
		c-2.385,0-4.324-1.939-4.324-4.324v-64.003c0-2.385,1.939-4.325,4.324-4.325H268.47c2.385,0,4.325,1.94,4.325,4.325V327.319z
		 M348.786,253.376c0,14.855-12.086,26.941-26.941,26.941h-19.05v-17.001c0-18.927-15.398-34.325-34.325-34.325H110.316
		c-18.927,0-34.324,15.398-34.324,34.325v17.001H56.941C42.086,280.317,30,268.231,30,253.376v-105.63
		c0-14.855,12.086-26.941,26.941-26.941h63.527h131.46h69.916c14.855,0,26.941,12.086,26.941,26.941V253.376z"/>
</g>
<g>
</g>
<g>
</g>
<g>
</g>
<g>
</g>
<g>
</g>
<g>
</g>
<g>
</g>
<g>
</g>
<g>
</g>
<g>
</g>
<g>
</g>
<g>
</g>
<g>
</g>
<g>
</g>
<g>
</g>
</svg>
