<svg id="Layer_1" data-name="Layer 1" xmlns="http://www.w3.org/2000/svg" viewBox="0 0 392 392"><path d="M-154.7,8.7A16.3,16.3,0,0,0-171,25c0,108.1,87.9,196,196,196S221,133.1,221,25,133.1-171,25-171a195.4,195.4,0,0,0-144.6,63.5v-47.2A16.3,16.3,0,0,0-136-171a16.3,16.3,0,0,0-16.3,16.3v91.6A16.2,16.2,0,0,0-136-46.8h91.7A16.2,16.2,0,0,0-28-63.1,16.2,16.2,0,0,0-44.3-79.4h-56.4A162.5,162.5,0,0,1,25-138.4c90.1,0,163.4,73.3,163.4,163.4S115.1,188.4,25,188.4-138.4,115.1-138.4,25A16.2,16.2,0,0,0-154.7,8.7Zm0,0" transform="translate(171 171)"/></svg>