<svg width="34" height="22" viewBox="0 0 34 22" fill="#022258" xmlns="http://www.w3.org/2000/svg">
<rect x="0.5" y="0.5" width="33" height="21" rx="1.5" stroke="#022258"/>
<path d="M14.3536 11.3536C14.5488 11.1583 14.5488 10.8417 14.3536 10.6464L11.1716 7.46447C10.9763 7.2692 10.6597 7.2692 10.4645 7.46447C10.2692 7.65973 10.2692 7.97631 10.4645 8.17157L13.2929 11L10.4645 13.8284C10.2692 14.0237 10.2692 14.3403 10.4645 14.5355C10.6597 14.7308 10.9763 14.7308 11.1716 14.5355L14.3536 11.3536ZM4 11.5L14 11.5L14 10.5L4 10.5L4 11.5Z" fill="white"/>
<path d="M20.6464 11.3536C20.4512 11.1583 20.4512 10.8417 20.6464 10.6464L23.8284 7.46447C24.0237 7.2692 24.3403 7.2692 24.5355 7.46447C24.7308 7.65973 24.7308 7.97631 24.5355 8.17157L21.7071 11L24.5355 13.8284C24.7308 14.0237 24.7308 14.3403 24.5355 14.5355C24.3403 14.7308 24.0237 14.7308 23.8284 14.5355L20.6464 11.3536ZM31 11.5L21 11.5L21 10.5L31 10.5L31 11.5Z" fill="white"/>
<line x1="17.5" y1="4" x2="17.5" y2="17" stroke="white"/>
</svg>
