<?xml version="1.0" encoding="iso-8859-1"?>
<!-- Generator: Adobe Illustrator 19.0.0, SVG Export Plug-In . SVG Version: 6.00 Build 0)  -->
<svg version="1.1" id="Layer_1" xmlns="http://www.w3.org/2000/svg" xmlns:xlink="http://www.w3.org/1999/xlink" x="0px" y="0px"
	 viewBox="0 0 506.8 506.8" style="enable-background:new 0 0 506.8 506.8;" xml:space="preserve">
<g>
	<g>
		<path d="M362.2,170.4c46.8,0,85.2-38,85.2-85.2c0-47.2-38-85.2-85.2-85.2C315.4,0,277,38,277,85.2c0,22.4,8.4,43.2,24,59.2
			L253.4,232l-47.6-87.6c15.6-16,24-36.8,24-59.2c0-46.8-38-85.2-85.2-85.2C97.8,0,59.4,38,59.4,85.2c0,47.2,38,85.2,85.2,85.2
			c6.4,0,12.8-0.8,19.2-2.4l62.4,113.6l-82.4,151.2c-22.4,40.8,8,72.8,8,72.8c0.8,0.8,1.6,1.2,2.8,1.2h0.4c1.2,0,2.4-0.8,2.8-2
			l95.6-173.6L349,504.8c0.4,1.2,1.6,2,2.8,2h0.4c1.2,0,2-0.4,2.8-1.2c0.4-0.4,30.4-32,8-72.8l-82.4-151.2L343,168
			C349.4,169.6,355.8,170.4,362.2,170.4z M144.6,134.8c-27.2,0-49.6-22.4-49.6-49.6c0-27.2,22.4-49.6,49.6-49.6s49.6,22.4,49.6,49.6
			C194.2,112.8,171.8,134.8,144.6,134.8z M253.4,292.8c-6.4,0-11.6-5.2-11.6-11.6c0-6.4,5.2-11.6,11.6-11.6
			c6.4,0,11.6,5.2,11.6,11.6C265,287.6,259.8,292.8,253.4,292.8z M312.6,85.2c0-27.2,22.4-49.6,49.6-49.6s49.6,22.4,49.6,49.6
			c0,27.2-22.4,49.6-49.6,49.6S312.6,112.8,312.6,85.2z"/>
	</g>
</g>
<g>
</g>
<g>
</g>
<g>
</g>
<g>
</g>
<g>
</g>
<g>
</g>
<g>
</g>
<g>
</g>
<g>
</g>
<g>
</g>
<g>
</g>
<g>
</g>
<g>
</g>
<g>
</g>
<g>
</g>
</svg>
