<svg width="27" height="27" viewBox="0 0 27 27" fill="none" xmlns="http://www.w3.org/2000/svg">
	<path d="M0.761852 24.044L0.761852 2.95598C0.761852 1.31038 2.10271 0 3.71783 0L7.19187 0C8.807 0 10.1479 1.31038 10.1479 2.95598V4.05305H22.307C24.4707 4.05305 26.2381 5.82054 26.2381 7.9842V19.0158C26.2381 21.1795 24.4707 22.947 22.307 22.947H10.1479V24.044C10.1479 25.6896 8.807 27 7.19187 27H3.71783C2.07224 27 0.761852 25.6591 0.761852 24.044ZM25.263 8.38036V7.9842C25.263 6.3386 23.9221 5.02822 22.307 5.02822L5.94244 5.02822L5.94244 8.38036L25.263 8.38036ZM25.263 11.5801V9.386L5.94244 9.386V11.5801L25.263 11.5801ZM22.307 21.9718C23.9221 21.9718 25.263 20.6309 25.263 19.0158V12.5553L5.94244 12.5553L5.94244 21.9718H22.307ZM7.19187 26.0248C8.28894 26.0248 9.17269 25.1411 9.17269 24.044V22.947H5.94244V23.9221C5.94244 24.1964 5.72912 24.4097 5.45485 24.4097C5.18059 24.4097 4.96727 24.1964 4.96727 23.9221L4.96727 3.0474C4.96727 2.77314 5.18059 2.55982 5.45485 2.55982C5.72912 2.55982 5.94244 2.77314 5.94244 3.0474V4.05305L9.14221 4.05305V2.95598C9.14221 1.85892 8.25847 0.975169 7.1614 0.975169L3.71783 0.975169C2.62077 0.975169 1.73702 1.85892 1.73702 2.95598L1.73702 24.044C1.73702 25.1411 2.62077 26.0248 3.71783 26.0248H7.19187Z"
	      class="elemFillColor"
	      fill="#022258"/>
</svg>
