<svg id="Layer_1" data-name="Layer 1" xmlns="http://www.w3.org/2000/svg" viewBox="0 0 221.1 139.2"><path d="M35.5,152a7.6,7.6,0,0,0,7.7-7.7V39.6L58.1,52.1A7.4,7.4,0,0,0,63,54a7.8,7.8,0,0,0,5.1-13.8L56.2,30.3h0l-8.4-7.1-6.4-5.4h-.1l-5.9-5h0l-5.9,5-3.1,2.6L14.6,30.3h0L2.8,40.2a7.9,7.9,0,0,0-1,11,7.7,7.7,0,0,0,10.9.9l15-12.5V144.3a7.6,7.6,0,0,0,7.6,7.7Zm57-137.7a8.7,8.7,0,0,0,0,17.3H212.4a8.7,8.7,0,1,0,0-17.3Zm0,39.5a8.6,8.6,0,1,0,0,17.2H186a8.6,8.6,0,1,0,0-17.2Zm0,39.4a8.7,8.7,0,0,0,0,17.3h67.2a8.7,8.7,0,0,0,0-17.3Zm0,39.4a8.7,8.7,0,0,0,0,17.3h40.8a8.7,8.7,0,0,0,0-17.3Z" transform="translate(0 -12.8)"/></svg>