<svg id="Layer_1" data-name="Layer 1" xmlns="http://www.w3.org/2000/svg" viewBox="0 0 221.1 139.2"><path d="M35.3,12.8a7.6,7.6,0,0,0-7.6,7.7V125.2l-15-12.6a7.4,7.4,0,0,0-4.9-1.8,7.7,7.7,0,0,0-5,13.7l11.8,10h0l8.4,7.1,6.5,5.4h0l5.9,5h0l6-5,3.1-2.6,11.7-9.9h0l11.9-10a7.7,7.7,0,0,0,.9-10.9,7.8,7.8,0,0,0-10.9-1L43.2,125.2V20.5a7.6,7.6,0,0,0-7.7-7.7Zm57.2,1.5a8.7,8.7,0,0,0,0,17.3H212.4a8.7,8.7,0,1,0,0-17.3Zm0,39.5a8.6,8.6,0,1,0,0,17.2H186a8.6,8.6,0,1,0,0-17.2Zm0,39.4a8.7,8.7,0,0,0,0,17.3h67.2a8.7,8.7,0,0,0,0-17.3Zm0,39.4a8.7,8.7,0,0,0,0,17.3h40.8a8.7,8.7,0,0,0,0-17.3Z" transform="translate(0 -12.8)"/></svg>