<svg xmlns="http://www.w3.org/2000/svg" viewBox="0 0 18 18" width="18" height="18">
	<defs>
		<clipPath clipPathUnits="userSpaceOnUse" id="cp1">
			<path d="M-894 -216L386 -216L386 808L-894 808Z" />
		</clipPath>
	</defs>
	<style>
		tspan { white-space:pre }
		.shp0 { fill: #022258 } 
	</style>
	<g id="לאישור 6" clip-path="url(#cp1)">
		<g id="כל החברות">
			<path id="מיון אייקון" class="shp0" d="M15.82 5.59L12.37 2.16C12.14 1.94 11.78 1.94 11.56 2.16L8.13 5.61C7.9 5.84 7.9 6.2 8.13 6.42L8.13 6.42C8.36 6.65 8.72 6.65 8.94 6.42L11.39 3.97L11.41 14.04C11.41 14.36 11.67 14.62 12 14.62C12.32 14.62 12.58 14.36 12.58 14.04L12.55 3.97L15.01 6.41C15.23 6.63 15.6 6.63 15.82 6.4C16.05 6.18 16.04 5.82 15.82 5.59L15.82 5.59ZM9.86 11.57C9.64 11.34 9.27 11.35 9.05 11.57L6.61 14.02L6.58 3.95C6.58 3.63 6.32 3.37 6 3.37C5.67 3.37 5.41 3.63 5.42 3.96L5.44 14.03L2.99 11.59C2.76 11.36 2.4 11.36 2.17 11.59C1.95 11.82 1.95 12.18 2.17 12.4L5.62 15.83C5.85 16.06 6.21 16.06 6.44 15.83L9.87 12.38C10.09 12.16 10.09 11.79 9.86 11.57L9.86 11.57L9.86 11.57Z" />
		</g>
	</g>
</svg>