<svg width="25" height="24" viewBox="0 0 25 24" fill="none" xmlns="http://www.w3.org/2000/svg">
    <path d="M2.59161 3.31036H7.55707V1.6842C7.55707 0.755676 8.31274 0 9.24127 0H15.804C16.7325 0 17.4882 0.755676 17.4882 1.6842V3.31036H22.4536C22.9106 3.31036 23.2812 3.68042 23.2812 4.138C23.2812 4.5954 22.9106 4.96545 22.4536 4.96545H21.5908L20.904 20.7609C20.8253 22.5776 19.339 24 17.5208 24H7.52429C5.70624 24 4.22015 22.5776 4.14124 20.7609L3.45441 4.96545H2.59161C2.13458 4.96545 1.76398 4.5954 1.76398 4.138C1.76398 3.68042 2.13458 3.31036 2.59161 3.31036ZM15.804 1.65509H9.24127L9.21234 3.31036H15.8232L15.804 1.65509ZM5.79486 20.6896C5.83533 21.6174 6.59485 22.3449 7.52448 22.3449H17.5209C18.4504 22.3449 19.2101 21.6174 19.2505 20.6896L19.9343 4.96545H5.11115L5.79486 20.6896Z" fill="#02225C"/>
    <path d="M12.5227 19.0345C12.9797 19.0345 13.3502 18.6643 13.3502 18.2069V8.27582C13.3502 7.81842 12.9797 7.44836 12.5227 7.44836C12.0657 7.44836 11.6951 7.81842 11.6951 8.27582V18.2069C11.6951 18.6643 12.0657 19.0345 12.5227 19.0345Z" fill="#02225C"/>
    <path d="M9.21234 19.0345C9.66937 19.0345 10.0398 18.6643 10.0398 18.2069V8.27582C10.0398 7.81842 9.66937 7.44836 9.21234 7.44836C8.75531 7.44836 8.3847 7.81842 8.3847 8.27582V18.2069C8.3847 18.6643 8.75531 19.0345 9.21234 19.0345Z" fill="#02225C"/>
    <path d="M15.8329 19.0345C16.2901 19.0345 16.6605 18.6643 16.6605 18.2069V8.27582C16.6605 7.81842 16.2901 7.44836 15.8329 7.44836C15.3759 7.44836 15.0054 7.81842 15.0054 8.27582V18.2069C15.0054 18.6643 15.3759 19.0345 15.8329 19.0345Z" fill="#02225C"/>
</svg>
