<svg width="15" height="25" viewBox="0 0 15 25" fill="none" xmlns="http://www.w3.org/2000/svg">
<path d="M4.1603 0C3.71092 0 3.34023 0.353615 3.34023 0.797612C3.34023 1.24161 3.71092 1.59522 4.1603 1.59522H10.8402C11.2896 1.59522 11.6603 1.24161 11.6603 0.797612C11.6603 0.353615 11.2896 0 10.8402 0H4.1603Z" fill="#02225C"/>
<path fill-rule="evenodd" clip-rule="evenodd" d="M7.50027 7.33972C5.20628 7.33972 3.34023 9.14105 3.34023 11.3709C3.34023 13.6007 5.20628 15.4021 7.50027 15.4021C9.79425 15.4021 11.6603 13.6007 11.6603 11.3709C11.6603 9.14105 9.79425 7.33972 7.50027 7.33972ZM4.98037 11.3709C4.98037 10.029 6.10503 8.93495 7.50027 8.93495C8.8955 8.93495 10.0202 10.029 10.0202 11.3709C10.0202 12.7127 8.8955 13.8068 7.50027 13.8068C6.10503 13.8068 4.98037 12.7127 4.98037 11.3709Z" fill="#02225C"/>
<path fill-rule="evenodd" clip-rule="evenodd" d="M7.5 16.9374C3.41235 16.9374 0 19.9577 0 23.7979C0 23.9526 0.00560802 24.1062 0.0166649 24.2586C0.0472011 24.6793 0.407351 25 0.834701 25H14.1653C14.5926 25 14.9528 24.6793 14.9833 24.2586C14.9944 24.1062 15 23.9526 15 23.7979C15 19.9577 11.5876 16.9374 7.5 16.9374ZM7.5 18.5326C10.638 18.5326 13.1212 20.7236 13.3436 23.4048H1.65639C1.87883 20.7236 4.36197 18.5326 7.5 18.5326Z" fill="#02225C"/>
</svg>
