<svg width="9" height="13" viewBox="0 0 9 13" fill="none" xmlns="http://www.w3.org/2000/svg">
<path d="M3.49356 6.60123L8.68886 2.03659C8.83191 1.9112 8.91061 1.74356 8.91061 1.56481C8.91061 1.38596 8.83191 1.21841 8.68886 1.09283L8.23362 0.693068C8.09079 0.567286 7.89987 0.498047 7.69641 0.498047C7.49295 0.498047 7.30225 0.567286 7.15931 0.693068L0.97348 6.12766C0.829975 6.25364 0.751392 6.42198 0.751956 6.60093C0.751392 6.78067 0.829862 6.94881 0.97348 7.07489L7.15355 12.5042C7.29649 12.63 7.48719 12.6993 7.69076 12.6993C7.89422 12.6993 8.08492 12.63 8.22798 12.5042L8.6831 12.1045C8.97926 11.8443 8.97926 11.4207 8.6831 11.1606L3.49356 6.60123Z" fill="#3A90C2"/>
</svg>
